HIERARCHY
ROOT ui
{
	 OFFSET 0 0 0
	 CHANNELS 3 XPosition YPosition Z Position
	 EndSite
	 {
	 OFFSET 0 -1 0
	 }
}
ROOT li
{
	 OFFSET 0 0 0
	 CHANNELS 3 XPosition YPosition Z Position
	 EndSite
	 {
	 OFFSET 0 -1 0
	 }
}
ROOT ul
{
	 OFFSET 0 0 0
	 CHANNELS 3 XPosition YPosition Z Position
	 EndSite
	 {
	 OFFSET 0 -1 0
	 }
}
ROOT ll
{
	 OFFSET 0 0 0
	 CHANNELS 3 XPosition YPosition Z Position
	 EndSite
	 {
	 OFFSET 0 -1 0
	 }
}
ROOT tt
{
	 OFFSET 0 0 0
	 CHANNELS 3 XPosition YPosition Z Position
	 EndSite
	 {
	 OFFSET 0 -1 0
	 }
}
ROOT tb
{
	 OFFSET 0 0 0
	 CHANNELS 3 XPosition YPosition Z Position
	 EndSite
	 {
	 OFFSET 0 -1 0
	 }
}
ROOT td
{
	 OFFSET 0 0 0
	 CHANNELS 3 XPosition YPosition Z Position
	 EndSite
	 {
	 OFFSET 0 -1 0
	 }
}
ROOT v
{
	 OFFSET 0 0 0
	 CHANNELS 3 XPosition YPosition Z Position
	 EndSite
	 {
	 OFFSET 0 -1 0
	 }
}
ROOT bn
{
	 OFFSET 0 0 0
	 CHANNELS 3 XPosition YPosition Z Position
	 EndSite
	 {
	 OFFSET 0 -1 0
	 }
}
MOTION
Frames: 13
Frame Time: 0.002
-0.00541080379486084	-0.004831829071044922	0		0.48928793334960935	-2.484803466796875	0		-0.91902197265625	0.345146240234375	0		-0.4156510009765625	-2.8819462890625	0		1.6374193115234374	-0.539971435546875	0		3.0727060546875	-0.008023994445800781	0		4.32693994140625	0.009674579620361327	0		5.98987255859375	0.5043873291015625	0		-0.25061376953125	5.88885693359375	0		
-0.005128881931304932	-0.004485781192779541	0		0.46460140991210935	-2.479216064453125	0		-0.9087476806640625	0.34440109252929685	0		-0.47542718505859377	-2.885008056640625	0		1.6495689697265625	-0.5527549438476562	0		3.06224365234375	0.018405515670776366	0		4.322349609375	0.023036340713500976	0		5.98623681640625	0.5127269287109375	0		-0.2351800537109375	5.90005712890625	0		
0.00220456600189209	0.002794503927230835	0		0.4987132873535156	-2.493202392578125	0		-0.9134313354492187	0.349804443359375	0		-0.40927987670898436	-2.8953037109375	0		1.6397232666015624	-0.5633162231445312	0		3.076429443359375	0.010600400924682616	0		4.32476220703125	0.038340843200683594	0		5.990416015625	0.5040035400390624	0		-0.234881591796875	5.90040771484375	0		
-0.0015819679498672485	1.8652600049972535E-4	0		0.49590814208984374	-2.496822021484375	0		-0.9132758178710938	0.34116067504882813	0		-0.4141059875488281	-2.900900390625	0		1.6708348388671874	-0.5762733154296875	0		3.070859375	0.030000242233276367	0		4.30808447265625	0.046844921112060546	0		5.99067041015625	0.5053351135253906	0		-0.24972552490234376	5.88990869140625	0		
-0.00843498420715332	-0.006388444900512696	0		0.5190506591796875	-2.5036923828125	0		-0.9230496215820313	0.3426158752441406	0		-0.3870034484863281	-2.91180859375	0		1.66194189453125	-0.5868304443359375	0		3.076005615234375	0.02330366325378418	0		4.31536865234375	0.05412652587890625	0		5.99088671875	0.5056838073730469	0		-0.23439566040039062	5.9011171875	0		
-0.008251093864440917	-0.006028779983520508	0		0.49023883056640627	-2.503047119140625	0		-0.9069259033203125	0.3368175964355469	0		-0.404021728515625	-2.932281494140625	0		1.653018798828125	-0.5973799438476562	0		3.0343291015625	0.03807887268066406	0		4.29371044921875	0.07070655822753906	0		5.9949814453125	0.49701150512695313	0		-0.2634333190917969	5.8797626953125	0		
-0.004072267055511475	-0.002703376054763794	0		0.528306884765625	-2.512053466796875	0		-0.8967780151367187	0.3370810546875	0		-0.393970458984375	-2.943015625	0		1.6120545654296874	-0.6086060180664062	0		3.044340576171875	0.02435679626464844	0		4.29404638671875	0.09008551025390625	0		5.9832080078125	0.5055148010253906	0		-0.23408966064453124	5.9018408203125	0		
0.006149112224578857	0.008570382118225098	0		0.511377197265625	-2.5175107421875	0		-0.9026265258789062	0.3415070495605469	0		-0.3629097900390625	-2.949949462890625	0		1.63710205078125	-0.6154692993164063	0		3.046748779296875	0.05472577667236328	0		4.30935546875	0.11033458709716797	0		6.00440625	0.5147152709960937	0		-0.2340098876953125	5.9022119140625	0		
0.02211757469177246	-0.002203244924545288	0		0.5474235229492187	-2.522476806640625	0		-0.8705928344726562	0.3375689697265625	0		-0.3739166259765625	-2.960461181640625	0		1.62200830078125	-0.6329255981445312	0		3.011660400390625	0.03847671508789063	0		4.294658203125	0.13389741516113282	0		5.98240234375	0.5073616638183593	0		-0.24908656311035157	5.891740234375	0		
-8.041750192642211E-4	0.002417325973510742	0		0.5014295959472657	-2.527625244140625	0		-0.9065564575195313	0.338308349609375	0		-0.34493927001953123	-2.969353271484375	0		1.655825439453125	-0.6558465576171875	0		3.026814697265625	0.05075386428833008	0		4.289763671875	0.14138336181640626	0		5.9914345703125	0.507727294921875	0		-0.2632135009765625	5.8812705078125	0		
-0.007878512859344482	-0.0041043667793273925	0		0.5243826904296875	-2.534434814453125	0		-0.9065664672851562	0.33870748901367187	0		-0.37504705810546873	-2.982653564453125	0		1.6067410888671876	-0.6639381713867187	0		3.019798583984375	0.050266456604003903	0		4.2768935546875	0.15596836853027343	0		5.9873349609375	0.49924478149414064	0		-0.2632867736816406	5.88167724609375	0		
-0.0039051930904388426	-7.180749773979188E-4	0		0.49738018798828126	-2.531738525390625	0		-0.9066266479492188	0.33912149047851564	0		-0.34413461303710935	-2.989535400390625	0		1.6206148681640624	-0.67162841796875	0		3.00886962890625	0.06383768844604493	0		4.2881083984375	0.1843399658203125	0		5.9952724609375	0.4996689453125	0		-0.24931118774414063	5.8929619140625	0		
0.0030521950721740724	0.00665709400177002	0		0.5242843017578125	-2.53355126953125	0		-0.9027031860351562	0.34351339721679686	0		-0.382211181640625	-2.989725341796875	0		1.6083677978515625	-0.6860439453125	0		2.9947392578125	0.06246055603027344	0		4.274259765625	0.21197941589355468	0		5.99139892578125	0.52523486328125	0		-0.23439790344238282	5.90425537109375	0		
